<svg width="153" height="160" viewBox="0 0 153 160" fill="none" xmlns="http://www.w3.org/2000/svg">
<path d="M20.5 126C20.5 126 24.5579 115.747 30 112C36.0562 107.83 48.5 108.5 48.5 108.5C58.2173 109.68 60.6944 111.942 59.5 119V126" stroke="#BFBFBE" stroke-width="3"/>
<path d="M75 81.5C75 81.5 81.5 89.5 83.5 101.5C85.5 113.5 88 121 88 121L95 123" stroke="#BFBFBE" stroke-width="3"/>
<path d="M95.5 122.5C90.5663 125.322 87.2921 126.267 79.5 125.5V121L71 95.5L69 91H43.5C40.5 85.5 41.6716 82.7721 40.5 77.5C40.5 77.5 38.6241 64.7829 40.5 57C42.4648 48.8485 50.5 38 50.5 38M91 63V65.5C91 65.5 76.5 68 66.5 67.5C56.5 67 50.5 50.5 50.5 50.5" stroke="#BFBFBE" stroke-width="3"/>
<path d="M5.5 131.5V125.5H10.5C10.5 125.5 11.8139 117.574 14 113C16.4083 107.961 22.5 101.5 22.5 101.5V91.5H69.5V99" stroke="#BFBFBE" stroke-width="3"/>
<path d="M70.4996 99C69.1328 108.958 66.3913 121 66.9996 124.5C67.608 128 95.4996 127 97.4996 121C99.4996 115 91.9996 103.5 91.9996 86.5C91.9996 69.5 97.4996 66.5 97.4996 66.5" stroke="#BFBFBE" stroke-width="3"/>
<path d="M60.5 42L70 57.5L91.5 56V57.5H96.5L99.5 59V63.5H98V60L93.5 62.5C92.8333 61.6667 91.5 60.5 91.5 62.5M101.5 57.5L107 52L113.5 54V65.5C113.5 65.5 111 65.5 107 65.5C103 65.5 113.5 94 119.5 94.5C125.5 95 128 104 128 104C142.113 103.239 147.512 105.674 151 117L148 119.5C148 119.5 144.5 116.5 132 119.5C119.5 122.5 110.5 134 110.5 134H105V129C105 129 102.934 132.224 99.5 134C94.2969 136.691 83 136 83 136L78 140H58L40 136L34.5 129H24.5L22 134H10V132H6.5" stroke="#BFBFBE" stroke-width="3"/>
<path d="M96 123L89 121C89 121 83.5 90.5 79 84.5C74.5 78.5 70.591 83.5317 68.5 79.5C66.5039 75.6513 70 68.5 70 68.5" stroke="#BFBFBE" stroke-width="3"/>
<path d="M151.5 135C151.5 143.968 143.37 151.5 133 151.5C127.706 151.5 122.904 150.165 119.471 147.751C116.078 145.366 114 141.927 114 137.5C114 135.469 114.892 133.396 116.559 131.368C118.225 129.341 120.599 127.445 123.369 125.815C128.931 122.54 135.795 120.5 141 120.5C146.255 120.5 148.61 121.922 149.849 124.032C150.518 125.171 150.943 126.641 151.191 128.504C151.44 130.366 151.5 132.525 151.5 135Z" stroke="#BFBFBE" stroke-width="3"/>
<path d="M55.9205 148.079C55.3073 150.094 54.3869 151.441 53.2888 152.342C52.1865 153.246 50.8013 153.784 49.1229 154.004C45.6947 154.454 41.3113 153.549 36.4368 152.065C31.8578 150.671 28.6018 148.085 26.7879 144.913C24.9784 141.749 24.5307 137.878 25.7876 133.749C26.4229 131.661 27.0797 131.455 27.3443 131.42C27.5818 131.388 27.956 131.427 28.5324 131.654C29.1037 131.878 29.7697 132.244 30.5531 132.743C31.333 133.24 32.1731 133.831 33.1029 134.485L33.1242 134.5C34.038 135.144 35.0282 135.841 36.0729 136.522C38.175 137.891 40.5686 139.243 43.2087 140.046C45.7395 140.816 48.0617 141.259 50.0197 141.625L50.0847 141.638C52.0665 142.009 53.5488 142.286 54.6517 142.711C55.7125 143.12 56.1366 143.558 56.3263 144.096C56.5565 144.749 56.578 145.919 55.9205 148.079Z" stroke="#BFBFBE" stroke-width="3"/>
<path d="M76.5 24.5C78.4526 23.3284 73.5 19.5 73.5 19.5L46.5 28.5L51 33V36.5C51 36.5 58.0474 45.0147 60 41.5C60.9483 39.7931 60 36.5 60 36.5C60 36.5 65.3532 35.1502 68 33C71.0687 30.507 73.5 24.5 73.5 24.5C73.5 24.5 75.4954 25.1028 76.5 24.5Z" stroke="#BFBFBE" stroke-width="3"/>
<path d="M50.2279 28.3733L72.7279 10.8733C72.7279 10.8733 64.2282 -5.62666 49.2279 6.37333C34.2277 18.3733 47.2279 28.3733 47.2279 28.3733H50.2279Z" stroke="#BFBFBE" stroke-width="3"/>
<path d="M84.5 10L73.5 10.5L56.5 24L58.5 25.5C58.5 25.5 69.1143 21.9317 75 18C79.0331 15.3058 84.5 10 84.5 10Z" stroke="#BFBFBE" stroke-width="3"/>
<path d="M17.5 105.5L2 88" stroke="#BFBFBE" stroke-width="3"/>
<path d="M36.5 66.2882V89.5H3.5V61.2466L36.5 66.2882Z" stroke="#BFBFBE" stroke-width="3"/>
<path d="M36.5 75.3426V89.5H3.5V71.6759L36.5 75.3426Z" stroke="#BFBFBE" stroke-width="3"/>
<path d="M63.5 22.5L79.5 10" stroke="#BFBFBE" stroke-width="3"/>
</svg>
